<svg xmlns="http://www.w3.org/2000/svg" width="43.528" height="32.365" viewBox="0 0 43.528 32.365">
  <g id="Grupo_2" data-name="Grupo 2" transform="translate(-674 -92.956)">
    <path id="Trazado_1" data-name="Trazado 1" d="M678.137,80.161c1.994-4.1,3.451-5.512,5.335-5.575,3.366-.124,5.375,5.575,5.375,5.575s2.792,5.056-.385,8.222c-1.614,1.608-2.926.976-4.991,1.032-1.658.049-2.55.531-4.367-1.032C675.411,85.208,678.137,80.161,678.137,80.161Z" transform="translate(4.349 19.372)" fill="none" stroke="#fff" stroke-width="2"/>
    <path id="Trazado_3" data-name="Trazado 3" d="M678.137,80.161c1.994-4.1,3.451-5.512,5.335-5.575,3.366-.124,5.375,5.575,5.375,5.575s2.792,5.056-.385,8.222c-1.614,1.608-2.926.976-4.991,1.032-1.658.049-2.55.531-4.367-1.032C675.411,85.208,678.137,80.161,678.137,80.161Z" transform="translate(19.703 19.372)" fill="none" stroke="#fff" stroke-width="2"/>
    <path id="Trazado_2" data-name="Trazado 2" d="M659.709,119.134c0,3.187,7.433,2.243,13.192,2.284,3.451.025,7.439.337,10.259-.1,1.708-.261,2.933-.887,2.933-2.188,0-3.187-7.349-10.464-13.192-10.464C666.277,108.671,659.709,115.947,659.709,119.134Z" transform="translate(15.291 2.788)" fill="none" stroke="#fff" stroke-width="2"/>
    <path id="Trazado_4" data-name="Trazado 4" d="M668.747,111.506a21.486,21.486,0,0,1,3.641,3.353,11.6,11.6,0,0,1,2.042,4.275c.333,1.756-4.49,2.17-2.042,2.188,3.451.025,11.77.433,14.589,0,1.708-.261,2.933-.887,2.933-2.188,0-3.187-7.349-10.464-13.192-10.464C670.094,108.671,668.747,111.506,668.747,111.506Z" transform="translate(26.618 2.788)" fill="none" stroke="#fff" stroke-width="2"/>
  </g>
</svg>
