<svg xmlns="http://www.w3.org/2000/svg" width="80.667" height="88" viewBox="0 0 80.667 88">
  <g id="comentar" transform="translate(-56 -57)">
    <g id="Trazado_2" data-name="Trazado 2" transform="translate(56 57)" fill="none">
      <path d="M33,0H47.667a33,33,0,0,1,33,33C80,52,62.652,72,33,88V66A33,33,0,0,1,33,0Z" stroke="none"/>
      <path d="M 33.00000381469727 6 C 18.11215209960938 6 6.000007629394531 18.11214447021484 6.000007629394531 33 C 6.000007629394531 47.88785552978516 18.11215209960938 60 33.00000381469727 60 L 39.00000381469727 60 L 39.00000381469727 66 L 39.00000381469727 77.59486389160156 C 61.28591918945313 63.7249755859375 74.14685821533203 47.72116470336914 74.66665649414063 33 C 74.66665649414063 18.11214447021484 62.55451202392578 6 47.66666030883789 6 L 33.00000381469727 6 M 33.00000381469727 0 L 47.66666030883789 0 C 65.89205932617188 0 80.66665649414063 14.77459716796875 80.66665649414063 33 C 80.00000762939453 52 62.65235137939453 72 33.00000381469727 88 L 33.00000381469727 66 C 14.77460479736328 66 7.62939453125e-06 51.22539901733398 7.62939453125e-06 33 C 7.62939453125e-06 14.77459716796875 14.77460479736328 0 33.00000381469727 0 Z" stroke="none" fill="#80919e"/>
    </g>
  </g>
</svg>
