<svg xmlns="http://www.w3.org/2000/svg" width="42" height="41.375" viewBox="0 0 42 41.375">
  <g id="Grupo_3" data-name="Grupo 3" transform="translate(-675 -140)">
    <g id="Trazado_5" data-name="Trazado 5" transform="translate(675 140)" fill="none">
      <path d="M13,0H29A13,13,0,0,1,42,13c0,7.7-1.306,9.965-3.232,13.185-2.427,4.075-6.913,7.852-17.373,15.19V29H11.3C4.118,29,0,23.18,0,16V13A13,13,0,0,1,13,0Z" stroke="none"/>
      <path d="M 13 2 C 10.06179046630859 2 7.299449920654297 3.144199371337891 5.221828460693359 5.221828460693359 C 3.144199371337891 7.299449920654297 2 10.06178855895996 2 12.99999809265137 L 2 15.99999809265137 C 2 19.13947868347168 2.889129638671875 21.95398902893066 4.503608703613281 23.92507743835449 C 6.151309967041016 25.93670845031738 8.5006103515625 26.99999809265137 11.29755020141602 26.99999809265137 L 21.3941707611084 26.99999809265137 L 23.3941707611084 26.99999809265137 L 23.3941707611084 28.99999809265137 L 23.3941707611084 37.50543975830078 C 31.65110397338867 31.57665252685547 35.11935043334961 28.40181159973145 37.05133056640625 25.1582088470459 C 38.82695007324219 22.19013786315918 40 20.22931861877441 40 12.99999809265137 C 40 10.06178855895996 38.85580062866211 7.299449920654297 36.77817153930664 5.221828460693359 C 34.7005500793457 3.144199371337891 31.93820953369141 2 29 2 L 13 2 M 13 0 L 29 0 C 36.1796989440918 0 42 5.820297241210938 42 12.99999809265137 C 42 20.69605827331543 40.6939582824707 22.96501922607422 38.76763916015625 26.18497848510742 C 36.34038925170898 30.26011848449707 31.85483932495117 34.03676986694336 21.3941707611084 41.37539672851563 L 21.3941707611084 28.99999809265137 L 11.29755020141602 28.99999809265137 C 4.117839813232422 28.99999809265137 0 23.1796989440918 0 15.99999809265137 L 0 12.99999809265137 C 0 5.820297241210938 5.820301055908203 0 13 0 Z" stroke="none" fill="#fff"/>
    </g>
  </g>
</svg>
