<svg xmlns="http://www.w3.org/2000/svg" width="44.215" height="47.272" viewBox="0 0 44.215 47.272">
  <g id="notificacion" transform="translate(-150.051 -289.728)">
    <g id="Trazado_6" data-name="Trazado 6" transform="translate(154.266 289.728)" fill="none">
      <path d="M18.129,0C28.664,0,34.877,8.54,34.877,19.074c0,.793.857,15.2.857,15.2l4.116,3.945c1.868.156-14.227-.069-21.721-.069-6.812,0-22.344.069-22.344.069L-.1,34.272s.976-14.06.976-15.2C.877,8.54,7.6,0,18.129,0Z" stroke="none"/>
      <path d="M 18.12928009033203 3 C 13.96952056884766 3 10.4040699005127 4.574478149414063 7.818389892578125 7.553218841552734 C 5.276859283447266 10.48109817504883 3.877170562744141 14.57259941101074 3.877170562744141 19.07399940490723 C 3.877170562744141 20.25592803955078 3.057998657226563 32.11466979980469 2.893791198730469 34.47990798950195 L 2.844600677490234 35.18843460083008 C 7.866001129150391 35.1694221496582 14.36045265197754 35.14799880981445 18.12928009033203 35.14799880981445 C 21.12568092346191 35.14799880981445 25.39339065551758 35.18301010131836 29.52058982849121 35.21685791015625 C 30.64255523681641 35.2260627746582 31.74443817138672 35.23509979248047 32.78677749633789 35.24311447143555 L 32.73960876464844 34.4503173828125 C 32.53728866577148 31.05009841918945 31.87717056274414 19.89234924316406 31.87717056274414 19.07399940490723 C 31.87717056274414 14.50634765625 30.55239105224609 10.39763832092285 28.14686012268066 7.504737854003906 C 25.69633865356445 4.557708740234375 22.2323112487793 3 18.12928009033203 3 M 18.12928009033203 0 C 28.66355133056641 0 34.87717056274414 8.539718627929688 34.87717056274414 19.07399940490723 C 34.87717056274414 19.86677932739258 35.73431015014648 34.27212905883789 35.73431015014648 34.27212905883789 L 39.85026931762695 38.21719741821289 C 40.33073043823242 38.25724029541016 39.62321853637695 38.27211380004883 38.17973709106445 38.27211380004883 C 34.0096435546875 38.27211380004883 23.69612312316895 38.14799880981445 18.12928009033203 38.14799880981445 C 11.31687927246094 38.14799880981445 -4.21453857421875 38.21719741821289 -4.21453857421875 38.21719741821289 L -0.09901046752929688 34.27212905883789 C -0.09901046752929688 34.27212905883789 0.8771705627441406 20.21177864074707 0.8771705627441406 19.07399940490723 C 0.8771705627441406 8.539718627929688 7.594999313354492 0 18.12928009033203 0 Z" stroke="none" fill="#fff"/>
    </g>
    <g id="Trazado_8" data-name="Trazado 8" transform="translate(163 318)" fill="none">
      <path d="M19,9.5a9.5,9.5,0,0,1-19,0C0,6.8-2.667,7.333,10,7.167S19,6.95,19,9.5Z" stroke="none"/>
      <path d="M 15.97253131866455 10.10015106201172 C 14.83820915222168 10.10193824768066 13.30915451049805 10.12251949310303 11.39616966247559 10.14827442169189 L 10.03946971893311 10.16639423370361 C 7.994110107421875 10.19330501556396 6.348560333251953 10.20214462280273 5.026339530944824 10.20924472808838 C 4.31302547454834 10.21307277679443 3.634862899780273 10.21671199798584 3.039989471435547 10.22340679168701 C 3.401027679443359 13.46822261810303 6.160460472106934 16.00000381469727 9.5 16.00000381469727 C 12.88175964355469 16.00000381469727 15.6686315536499 13.40395832061768 15.97253131866455 10.10015106201172 M 16.12897682189941 7.100027084350586 C 21.25302505493164 7.100027084350586 19 7.501499176025391 19 9.500003814697266 C 19 14.74670505523682 14.74670028686523 19.00000381469727 9.5 19.00000381469727 C 4.253299713134766 19.00000381469727 0 14.74670505523682 0 9.500003814697266 C 0 6.803205490112305 -2.666669845581055 7.333314895629883 10 7.166654586791992 C 12.73913669586182 7.130617141723633 14.71518421173096 7.100027084350586 16.12897682189941 7.100027084350586 Z" stroke="none" fill="#fff"/>
    </g>
  </g>
</svg>
